<svg xmlns="http://www.w3.org/2000/svg" viewBox="0 0 604 483.99"><defs><style>.cls-1{fill:#9edcf3;}.cls-1,.cls-10,.cls-13,.cls-14,.cls-2,.cls-3,.cls-5,.cls-6,.cls-7,.cls-9{stroke:#231f20;}.cls-1,.cls-10,.cls-13,.cls-14,.cls-15,.cls-16,.cls-19,.cls-2,.cls-3,.cls-5,.cls-6,.cls-7,.cls-9{stroke-miterlimit:10;}.cls-13,.cls-14,.cls-15,.cls-16,.cls-19,.cls-2,.cls-5{fill:none;}.cls-15,.cls-16,.cls-2{stroke-width:2px;}.cls-3{fill:#fff;}.cls-18,.cls-4{font-size:10px;}.cls-12,.cls-4,.cls-7,.cls-8{fill:#231f20;}.cls-18,.cls-4,.cls-8{font-family:PalatinoLinotype-Roman, Palatino Linotype;}.cls-6{fill:#fff200;}.cls-8{font-size:12px;}.cls-9{fill:#b7da9f;}.cls-10{fill:#f9bebf;}.cls-11{letter-spacing:-0.02em;}.cls-13,.cls-14{stroke-width:0.5px;}.cls-14{stroke-dasharray:3.01 3.01;}.cls-15{stroke:#ed1c24;}.cls-16{stroke:#00a651;stroke-dasharray:3;}.cls-17{letter-spacing:-0.06em;}.cls-18{fill:#00a651;}.cls-19{stroke:#00aeef;}</style></defs><g id="Layer_2" data-name="Layer 2"><g id="Layer_1-2" data-name="Layer 1"><polygon class="cls-1" points="72.5 337.08 0.5 337.08 0.5 193.08 72.5 193.08 72.5 328.08 72.5 337.08"/><polyline class="cls-2" points="72.5 328.08 81.5 319.08 81.5 247.08 90.5 238.08 131 238.08 140 247.08 140 319.08 149 328.08"/><line class="cls-3" x1="72.5" y1="319.08" x2="81.5" y2="310.08"/><line class="cls-3" x1="72.5" y1="310.08" x2="81.5" y2="301.08"/><line class="cls-3" x1="72.5" y1="301.08" x2="81.5" y2="292.08"/><line class="cls-3" x1="72.5" y1="292.08" x2="81.5" y2="283.08"/><line class="cls-3" x1="72.5" y1="283.08" x2="81.5" y2="274.08"/><line class="cls-3" x1="72.5" y1="274.08" x2="81.5" y2="265.08"/><line class="cls-3" x1="72.5" y1="265.08" x2="81.5" y2="256.08"/><text class="cls-4" transform="translate(63.5 328.08)">0</text><text class="cls-4" transform="translate(63.5 319.08)">1</text><text class="cls-4" transform="translate(63.28 310.83)">2</text><text class="cls-4" transform="translate(63.5 301.08)">3</text><text class="cls-4" transform="translate(63.5 292.08)">4</text><text class="cls-4" transform="translate(63.5 283.08)">5</text><text class="cls-4" transform="translate(63.5 274.08)">6</text><text class="cls-4" transform="translate(63.5 265.08)">7</text><text class="cls-4" transform="translate(59 310.08) rotate(-90)">PORT D</text><line class="cls-5" x1="149" y1="319.08" x2="140" y2="310.08"/><line class="cls-5" x1="149" y1="310.08" x2="140" y2="301.08"/><line class="cls-5" x1="149" y1="301.08" x2="140" y2="292.08"/><line class="cls-5" x1="149" y1="292.08" x2="140" y2="283.08"/><line class="cls-5" x1="149" y1="283.08" x2="140" y2="274.08"/><line class="cls-5" x1="149" y1="274.08" x2="140" y2="265.08"/><line class="cls-5" x1="149" y1="265.08" x2="140" y2="256.08"/><text class="cls-4" transform="translate(158 328.08)">0</text><text class="cls-4" transform="translate(158 319.08)">1</text><text class="cls-4" transform="translate(158 310.08)">2</text><text class="cls-4" transform="translate(158 301.08)">3</text><text class="cls-4" transform="translate(158 292.08)">4</text><text class="cls-4" transform="translate(158 283.08)">5</text><text class="cls-4" transform="translate(158 274.08)">6</text><text class="cls-4" transform="translate(158 265.08)">7</text><rect class="cls-6" x="149" y="139.08" width="117" height="198"/><text class="cls-4" transform="translate(176 319.08) rotate(-90)">ADDRESS</text><text class="cls-4" transform="translate(153.5 215.58)">Q-point</text><text class="cls-4" transform="translate(153.5 233.58)">Select</text><line class="cls-7" x1="72.5" y1="215.58" x2="149" y2="215.58"/><line class="cls-7" x1="72.5" y1="229.08" x2="149" y2="229.08"/><text class="cls-8" transform="translate(23 305.58) rotate(-90)">PIC18F46K22</text><text class="cls-4" transform="translate(59 233.58) rotate(-90)">PORT B</text><text class="cls-4" transform="translate(63.5 229.08)">0</text><text class="cls-4" transform="translate(63.5 220.08)">1</text><text class="cls-4" transform="translate(63.5 211.08)">2</text><text class="cls-4" transform="translate(117.5 193.08) rotate(-90)">Write</text><path class="cls-5" d="M72.5,206.58H122v-144H270.5s0-4.5,4.5-4.5,4.5,4.5,4.5,4.5H311"/><text class="cls-4" transform="translate(248 332.58)">H1</text><text class="cls-4" transform="translate(248 323.58)">H2</text><text class="cls-4" transform="translate(248 314.58)">H3</text><text class="cls-4" transform="translate(248 305.58)">H4</text><text class="cls-4" transform="translate(248 256.08)">V1</text><text class="cls-4" transform="translate(248 247.08)">V2</text><text class="cls-4" transform="translate(248 238.08)">V3</text><text class="cls-4" transform="translate(248 229.08)">V4</text><text class="cls-4" transform="translate(248 287.58)">V1’</text><text class="cls-4" transform="translate(248 278.58)">V2’</text><text class="cls-4" transform="translate(248 215.58)">H1’</text><text class="cls-4" transform="translate(248 206.58)">H2’</text><text class="cls-4" transform="translate(248 197.58)">H3’</text><text class="cls-4" transform="translate(248 188.58)">H4’</text><text class="cls-4" transform="translate(248 175.08)">H5’</text><text class="cls-4" transform="translate(248 166.08)">H6’</text><text class="cls-4" transform="translate(248 157.08)">H7’</text><text class="cls-4" transform="translate(248 148.08)">H8’</text><rect class="cls-9" x="311" y="301.08" width="58.5" height="36"/><rect class="cls-9" x="311" y="260.58" width="58.5" height="36"/><rect class="cls-9" x="311" y="220.08" width="58.5" height="36"/><rect class="cls-9" x="311" y="179.58" width="58.5" height="36"/><polygon class="cls-9" points="369.5 175.08 311 175.08 311 139.08 369.5 139.08 369.5 143.58 369.5 175.08"/><polygon class="cls-10" points="369.5 67.08 311 67.08 311 31.08 369.5 31.08 369.5 35.58 369.5 67.08"/><polyline class="cls-2" points="302 328.08 302 301.08 297.5 296.58 279.5 296.58 275 301.08 275 328.08"/><line class="cls-5" x1="275" y1="319.08" x2="266" y2="323.58"/><line class="cls-5" x1="275" y1="310.08" x2="266" y2="314.58"/><line class="cls-5" x1="275" y1="301.08" x2="266" y2="305.58"/><line class="cls-5" x1="302" y1="301.08" x2="311" y2="305.58"/><line class="cls-5" x1="302" y1="310.08" x2="311" y2="314.58"/><line class="cls-5" x1="302" y1="319.08" x2="311" y2="323.58"/><line class="cls-5" x1="311" y1="332.58" x2="302" y2="328.08"/><line class="cls-5" x1="266" y1="332.58" x2="275" y2="328.08"/><polyline class="cls-2" points="302 166.08 302 139.08 297.5 134.58 279.5 134.58 275 139.08 275 166.08"/><line class="cls-5" x1="275" y1="157.08" x2="266" y2="161.58"/><line class="cls-5" x1="275" y1="148.08" x2="266" y2="152.58"/><line class="cls-5" x1="275" y1="139.08" x2="266" y2="143.58"/><line class="cls-5" x1="302" y1="139.08" x2="311" y2="143.58"/><line class="cls-5" x1="302" y1="148.08" x2="311" y2="152.58"/><line class="cls-5" x1="302" y1="157.08" x2="311" y2="161.58"/><line class="cls-5" x1="311" y1="170.58" x2="302" y2="166.08"/><line class="cls-5" x1="266" y1="170.58" x2="275" y2="166.08"/><polyline class="cls-2" points="302 206.58 302 179.58 297.5 175.08 279.5 175.08 275 179.58 275 206.58"/><line class="cls-5" x1="275" y1="197.58" x2="266" y2="202.08"/><line class="cls-5" x1="275" y1="188.58" x2="266" y2="193.08"/><line class="cls-5" x1="275" y1="179.58" x2="266" y2="184.08"/><line class="cls-5" x1="302" y1="179.58" x2="311" y2="184.08"/><line class="cls-5" x1="302" y1="188.58" x2="311" y2="193.08"/><line class="cls-5" x1="302" y1="197.58" x2="311" y2="202.08"/><line class="cls-5" x1="311" y1="211.08" x2="302" y2="206.58"/><line class="cls-5" x1="266" y1="211.08" x2="275" y2="206.58"/><polyline class="cls-2" points="302 247.08 302 220.08 297.5 215.58 279.5 215.58 275 220.08 275 247.08"/><line class="cls-5" x1="275" y1="238.08" x2="266" y2="242.58"/><line class="cls-5" x1="275" y1="229.08" x2="266" y2="233.58"/><line class="cls-5" x1="275" y1="220.08" x2="266" y2="224.58"/><line class="cls-5" x1="302" y1="220.08" x2="311" y2="224.58"/><line class="cls-5" x1="302" y1="229.08" x2="311" y2="233.58"/><line class="cls-5" x1="302" y1="238.08" x2="311" y2="242.58"/><line class="cls-5" x1="311" y1="251.58" x2="302" y2="247.08"/><line class="cls-5" x1="266" y1="251.58" x2="275" y2="247.08"/><polyline class="cls-2" points="302 278.58 302 269.58 297.5 265.08 279.5 265.08 275 269.58 275 278.58"/><line class="cls-5" x1="275" y1="278.58" x2="266" y2="283.08"/><line class="cls-5" x1="275" y1="269.58" x2="266" y2="274.08"/><line class="cls-5" x1="302" y1="269.58" x2="311" y2="274.08"/><line class="cls-5" x1="302" y1="278.58" x2="311" y2="283.08"/><text class="cls-4" transform="translate(315.5 319.08)">Selector Bar<tspan x="0" y="10">Dri</tspan><tspan class="cls-11" x="14.6" y="10">v</tspan><tspan x="20.08" y="10">er</tspan></text><text class="cls-4" transform="translate(315.5 274.08)">Selector Bar<tspan x="0" y="10">Dri</tspan><tspan class="cls-11" x="14.6" y="10">v</tspan><tspan x="20.08" y="10">er</tspan></text><text class="cls-4" transform="translate(315.5 233.58)">Selector Bar<tspan x="0" y="10">Dri</tspan><tspan class="cls-11" x="14.6" y="10">v</tspan><tspan x="20.08" y="10">er</tspan></text><text class="cls-4" transform="translate(315.5 197.58)">Selector Bar<tspan x="0" y="10">Dri</tspan><tspan class="cls-11" x="14.6" y="10">v</tspan><tspan x="20.08" y="10">er</tspan></text><text class="cls-4" transform="translate(315.5 157.08)">Selector Bar<tspan x="0" y="10">Dri</tspan><tspan class="cls-11" x="14.6" y="10">v</tspan><tspan x="20.08" y="10">er</tspan></text><text class="cls-4" transform="translate(387.5 337.08)">H1</text><text class="cls-4" transform="translate(387.5 328.08)">H2</text><text class="cls-4" transform="translate(387.5 319.08)">H3</text><text class="cls-4" transform="translate(387.5 310.08)">H4</text><text class="cls-4" transform="translate(387.5 256.08)">V1</text><text class="cls-4" transform="translate(387.5 247.08)">V2</text><text class="cls-4" transform="translate(387.5 238.08)">V3</text><text class="cls-4" transform="translate(387.5 229.08)">V4</text><text class="cls-4" transform="translate(387.5 287.58)">V1’</text><text class="cls-4" transform="translate(387.5 278.58)">V2’</text><text class="cls-4" transform="translate(387.5 215.58)">H1’</text><text class="cls-4" transform="translate(387.5 206.58)">H2’</text><text class="cls-4" transform="translate(387.5 197.58)">H3’</text><text class="cls-4" transform="translate(387.5 188.58)">H4’</text><text class="cls-4" transform="translate(387.5 175.08)">H5’</text><text class="cls-4" transform="translate(387.5 166.08)">H6’</text><text class="cls-4" transform="translate(387.5 157.08)">H7’</text><text class="cls-4" transform="translate(387.5 148.08)">H8’</text><line class="cls-5" x1="351.5" y1="337.08" x2="351.5" y2="362.94"/><polygon class="cls-12" points="349.81 360.94 351.5 362.64 353.19 360.94 353.19 362.38 351.5 364.08 349.81 362.38 349.81 360.94"/><text class="cls-4" transform="translate(342.5 373.08)">-250V</text><polygon class="cls-5" points="356 350.58 365 350.58 360.5 355.08 356 350.58"/><line class="cls-5" x1="360.5" y1="337.08" x2="360.5" y2="350.58"/><line class="cls-5" x1="342.5" y1="139.08" x2="342.5" y2="126.72"/><polygon class="cls-12" points="344.19 128.71 342.5 127.02 340.81 128.71 340.81 127.27 342.5 125.58 344.19 127.27 344.19 128.71"/><text class="cls-4" transform="translate(333.5 121.08)">+12</text><line class="cls-12" x1="338" y1="337.08" x2="338" y2="355.08"/><line class="cls-5" x1="338" y1="337.08" x2="338" y2="353.94"/><polygon class="cls-12" points="336.31 351.94 338 353.64 339.69 351.94 339.69 353.38 338 355.08 336.31 353.38 336.31 351.94"/><text class="cls-4" transform="translate(329 364.08)">-12</text><line class="cls-5" x1="234.5" y1="139.08" x2="234.5" y2="113.22"/><polygon class="cls-12" points="236.19 115.21 234.5 113.52 232.81 115.21 232.81 113.77 234.5 112.08 236.19 113.77 236.19 115.21"/><text class="cls-4" transform="translate(225.5 107.58)">+5</text><line class="cls-12" x1="324.5" y1="17.58" x2="324.5" y2="373.08"/><line class="cls-13" x1="324.5" y1="17.58" x2="324.5" y2="19.08"/><line class="cls-14" x1="324.5" y1="22.09" x2="324.5" y2="370.07"/><line class="cls-13" x1="324.5" y1="371.58" x2="324.5" y2="373.08"/><line class="cls-5" x1="239" y1="337.08" x2="239" y2="355.08"/><line class="cls-5" x1="243.5" y1="355.08" x2="234.5" y2="355.08"/><polyline class="cls-5" points="315.5 139.08 315.5 130.08 234.5 130.08"/><line class="cls-5" x1="468.5" y1="188.58" x2="468.5" y2="265.08"/><line class="cls-5" x1="477.5" y1="188.58" x2="477.5" y2="265.08"/><line class="cls-5" x1="482" y1="188.58" x2="482" y2="265.08"/><line class="cls-5" x1="486.5" y1="188.58" x2="486.5" y2="265.08"/><line class="cls-5" x1="491" y1="188.58" x2="491" y2="265.08"/><line class="cls-5" x1="473" y1="188.58" x2="473" y2="265.08"/><line class="cls-5" x1="464" y1="193.08" x2="495.5" y2="193.08"/><line class="cls-5" x1="464" y1="197.58" x2="495.5" y2="197.58"/><line class="cls-5" x1="464" y1="202.08" x2="495.5" y2="202.08"/><line class="cls-5" x1="464" y1="206.58" x2="495.5" y2="206.58"/><line class="cls-5" x1="464" y1="211.08" x2="495.5" y2="211.08"/><line class="cls-5" x1="464" y1="215.58" x2="495.5" y2="215.58"/><line class="cls-5" x1="464" y1="220.08" x2="495.5" y2="220.08"/><line class="cls-5" x1="464" y1="224.58" x2="495.5" y2="224.58"/><line class="cls-5" x1="464" y1="229.08" x2="495.5" y2="229.08"/><line class="cls-5" x1="464" y1="233.58" x2="495.5" y2="233.58"/><line class="cls-5" x1="464" y1="238.08" x2="495.5" y2="238.08"/><line class="cls-5" x1="464" y1="242.58" x2="495.5" y2="242.58"/><line class="cls-5" x1="464" y1="247.08" x2="495.5" y2="247.08"/><line class="cls-5" x1="464" y1="251.58" x2="495.5" y2="251.58"/><line class="cls-5" x1="464" y1="256.08" x2="495.5" y2="256.08"/><line class="cls-5" x1="464" y1="260.58" x2="495.5" y2="260.58"/><polyline class="cls-5" points="464 283.08 464 278.58 495.5 278.58 495.5 283.08 536 301.08 536 350.58"/><polyline class="cls-15" points="470.75 296.58 470.75 287.58 479.75 283.08 488.75 287.58 488.75 296.58"/><line class="cls-5" x1="479.75" y1="283.08" x2="479.75" y2="323.58"/><polygon class="cls-5" points="475.25 323.58 484.25 323.58 479.75 328.08 475.25 323.58"/><polyline class="cls-5" points="470.75 296.58 470.75 305.58 455 305.58 455 314.58"/><path class="cls-5" d="M488.75,296.58v9h-4.5s0-4.5-4.5-4.5-4.5,4.5-4.5,4.5h-4.5"/><circle class="cls-5" cx="455" cy="323.58" r="9"/><line class="cls-5" x1="455" y1="332.58" x2="455" y2="350.58"/><polygon class="cls-5" points="450.5 350.58 459.5 350.58 455 355.08 450.5 350.58"/><polygon class="cls-5" points="531.5 350.58 540.5 350.58 536 355.08 531.5 350.58"/><line class="cls-5" x1="455" y1="175.08" x2="460.5" y2="175.08"/><line class="cls-5" x1="455" y1="168.33" x2="460.5" y2="168.33"/><line class="cls-5" x1="455" y1="163.83" x2="460.5" y2="163.83"/><rect class="cls-7" x="459.13" y="170.58" width="2.75" height="2.25"/><rect class="cls-7" x="464.63" y="170.58" width="2.75" height="2.25"/><line class="cls-5" x1="466" y1="175.08" x2="471.5" y2="175.08"/><line class="cls-5" x1="466" y1="168.33" x2="471.5" y2="168.33"/><line class="cls-5" x1="466" y1="163.83" x2="471.5" y2="163.83"/><rect class="cls-7" x="470.13" y="170.58" width="2.75" height="2.25"/><rect class="cls-7" x="475.63" y="170.58" width="2.75" height="2.25"/><line class="cls-5" x1="477" y1="175.08" x2="482.5" y2="175.08"/><line class="cls-5" x1="477" y1="168.33" x2="482.5" y2="168.33"/><line class="cls-5" x1="477" y1="163.83" x2="482.5" y2="163.83"/><rect class="cls-7" x="481.13" y="170.58" width="2.75" height="2.25"/><rect class="cls-7" x="486.63" y="170.58" width="2.75" height="2.25"/><line class="cls-5" x1="488" y1="175.08" x2="493.5" y2="175.08"/><line class="cls-5" x1="488" y1="168.33" x2="493.5" y2="168.33"/><line class="cls-5" x1="488" y1="163.83" x2="493.5" y2="163.83"/><line class="cls-5" x1="499" y1="175.08" x2="504.5" y2="175.08"/><line class="cls-5" x1="499" y1="168.33" x2="504.5" y2="168.33"/><line class="cls-5" x1="499" y1="163.83" x2="504.5" y2="163.83"/><rect class="cls-7" x="492.13" y="170.58" width="2.75" height="2.25"/><rect class="cls-7" x="497.63" y="170.58" width="2.75" height="2.25"/><text class="cls-4" transform="translate(563 242.58) rotate(-90)">Collector</text><text class="cls-4" transform="translate(378.5 58.08)">Write</text><text class="cls-4" transform="translate(378.5 40.08)">Read</text><text class="cls-4" transform="translate(531.5 341.58) rotate(-90)">Cathode</text><polyline class="cls-2" points="450.5 157.08 450.5 148.08 509 148.08 509 157.08"/><line class="cls-16" x1="454.22" y1="152.41" x2="503.72" y2="152.41"/><circle class="cls-5" cx="567.5" cy="323.58" r="9"/><line class="cls-5" x1="567.5" y1="332.58" x2="567.5" y2="350.58"/><polygon class="cls-5" points="563 350.58 572 350.58 567.5 355.08 563 350.58"/><polyline class="cls-5" points="509 175.08 567.5 197.58 567.5 314.58"/><text class="cls-4" transform="translate(545 310.08)">180V</text><text class="cls-4" transform="translate(410 341.58)">20<tspan class="cls-17" x="10" y="0">V</tspan><tspan x="16.67" y="0">,1.2A</tspan></text><text class="cls-4" transform="translate(590 238.08) rotate(-90)">Faraday</text><text class="cls-18" transform="translate(522.5 152.58)">Phosphor</text><circle class="cls-5" cx="594.5" cy="323.58" r="9"/><line class="cls-5" x1="594.5" y1="332.58" x2="594.5" y2="350.58"/><polygon class="cls-5" points="590 350.58 599 350.58 594.5 355.08 590 350.58"/><polyline class="cls-13" points="513.5 157.08 594.5 188.58 594.5 314.58"/><rect class="cls-19" x="441.5" y="139.08" width="76.5" height="157.5" rx="9"/><text class="cls-4" transform="translate(572 310.08)">400V</text><line class="cls-7" x1="405.5" y1="143.58" x2="437" y2="193.08"/><line class="cls-7" x1="405.5" y1="152.58" x2="437" y2="197.58"/><line class="cls-7" x1="405.5" y1="161.58" x2="437" y2="202.08"/><line class="cls-7" x1="405.5" y1="170.58" x2="437" y2="206.58"/><line class="cls-7" x1="405.5" y1="184.08" x2="437" y2="211.08"/><line class="cls-7" x1="405.5" y1="193.08" x2="437" y2="215.58"/><line class="cls-7" x1="405.5" y1="202.08" x2="437" y2="220.08"/><line class="cls-7" x1="405.5" y1="211.08" x2="437" y2="224.58"/><line class="cls-7" x1="405.5" y1="224.58" x2="437" y2="229.08"/><line class="cls-7" x1="405.5" y1="233.58" x2="437" y2="233.58"/><line class="cls-7" x1="405.5" y1="242.58" x2="437" y2="238.08"/><line class="cls-7" x1="405.5" y1="251.58" x2="437" y2="242.58"/><line class="cls-7" x1="405.5" y1="274.08" x2="437" y2="247.08"/><line class="cls-7" x1="405.5" y1="283.08" x2="437" y2="251.58"/><line class="cls-7" x1="405.5" y1="305.58" x2="437" y2="256.08"/><line class="cls-7" x1="405.5" y1="314.58" x2="437" y2="260.58"/><line class="cls-7" x1="405.5" y1="323.58" x2="437" y2="265.08"/><line class="cls-7" x1="405.5" y1="332.58" x2="437" y2="269.58"/><line class="cls-7" x1="369.5" y1="143.58" x2="383" y2="143.58"/><line class="cls-7" x1="369.5" y1="152.58" x2="383" y2="152.58"/><line class="cls-7" x1="369.5" y1="161.58" x2="383" y2="161.58"/><line class="cls-7" x1="369.5" y1="170.58" x2="383" y2="170.58"/><line class="cls-7" x1="369.5" y1="184.08" x2="383" y2="184.08"/><line class="cls-7" x1="369.5" y1="193.08" x2="383" y2="193.08"/><line class="cls-7" x1="369.5" y1="202.08" x2="383" y2="202.08"/><line class="cls-7" x1="369.5" y1="211.08" x2="383" y2="211.08"/><line class="cls-7" x1="369.5" y1="224.58" x2="383" y2="224.58"/><line class="cls-7" x1="369.5" y1="233.58" x2="383" y2="233.58"/><line class="cls-7" x1="369.5" y1="242.58" x2="383" y2="242.58"/><line class="cls-7" x1="369.5" y1="251.58" x2="383" y2="251.58"/><line class="cls-7" x1="369.5" y1="274.08" x2="383" y2="274.08"/><line class="cls-7" x1="369.5" y1="283.08" x2="383" y2="283.08"/><line class="cls-7" x1="369.5" y1="305.58" x2="383" y2="305.58"/><line class="cls-7" x1="369.5" y1="314.58" x2="383" y2="314.58"/><line class="cls-7" x1="369.5" y1="323.58" x2="383" y2="323.58"/><line class="cls-7" x1="369.5" y1="332.58" x2="383" y2="332.58"/><text class="cls-8" transform="translate(207.5 274.08) rotate(-90)">Selector Bar<tspan x="0" y="12">Decoder &amp; State</tspan><tspan x="0" y="24">Select</tspan></text><text class="cls-8" transform="translate(257 382.08)">Opto-isolated</text><polyline class="cls-5" points="369.5 62.58 414.5 62.58 414.5 143.58 437 166.08 450.5 168.33"/><polyline class="cls-5" points="369.5 44.58 428 44.58 428 143.58 437 161.58 450.5 163.83"/><line class="cls-5" x1="347" y1="31.08" x2="347" y2="9.72"/><polygon class="cls-12" points="348.69 11.71 347 10.02 345.31 11.71 345.31 10.27 347 8.58 348.69 10.27 348.69 11.71"/><text class="cls-4" transform="translate(338 8.58)">+360V</text><line class="cls-5" x1="365" y1="31.08" x2="365" y2="23.22"/><polygon class="cls-12" points="366.69 25.21 365 23.52 363.31 25.21 363.31 23.77 365 22.08 366.69 23.77 366.69 25.21"/><text class="cls-4" transform="translate(356 22.08)">+50V</text><line class="cls-5" x1="365" y1="67.08" x2="365" y2="79.44"/><polygon class="cls-12" points="363.31 77.44 365 79.14 366.69 77.44 366.69 78.88 365 80.58 363.31 78.88 363.31 77.44"/><text class="cls-4" transform="translate(356 89.58)">-100V</text><line class="cls-5" x1="347" y1="67.08" x2="347" y2="80.58"/><polygon class="cls-5" points="342.5 80.58 351.5 80.58 347 85.08 342.5 80.58"/><polyline class="cls-5" points="315.5 31.08 315.5 22.08 275 22.08 275 130.08"/><path class="cls-5" d="M72.5,197.58H104v-153H270.5s0-4.5,4.5-4.5,4.5,4.5,4.5,4.5H311"/><text class="cls-4" transform="translate(99.5 188.58) rotate(-90)">Read</text><text class="cls-4" transform="translate(63.5 202.08)">3</text><text class="cls-8" transform="translate(329 44.58)">R/W<tspan x="0" y="12">Dri</tspan><tspan class="cls-11" x="17.52" y="12">v</tspan><tspan x="24.09" y="12">er</tspan></text><text class="cls-8" transform="translate(446 134.58)">RCA SB-256</text><line class="cls-5" x1="32" y1="193.08" x2="32" y2="167.22"/><polygon class="cls-12" points="33.7 169.21 32 167.52 30.3 169.21 30.3 167.77 32 166.08 33.7 167.77 33.7 169.21"/><text class="cls-4" transform="translate(23 161.58)">+5</text><line class="cls-5" x1="41" y1="337.08" x2="41" y2="355.08"/><line class="cls-5" x1="45.5" y1="355.08" x2="36.5" y2="355.08"/><circle class="cls-5" cx="558.5" cy="427.08" r="9"/><line class="cls-5" x1="558.5" y1="436.08" x2="558.5" y2="454.08"/><polygon class="cls-5" points="554 454.08 563 454.08 558.5 458.58 554 454.08"/><circle class="cls-5" cx="585.5" cy="427.08" r="9"/><line class="cls-5" x1="585.5" y1="436.08" x2="585.5" y2="454.08"/><polygon class="cls-5" points="581 454.08 590 454.08 585.5 458.58 581 454.08"/><line class="cls-5" x1="558.5" y1="418.08" x2="558.5" y2="396.72"/><polygon class="cls-12" points="560.2 398.71 558.5 397.02 556.8 398.71 556.8 397.27 558.5 395.58 560.2 397.27 560.2 398.71"/><text class="cls-4" transform="translate(545 391.08)">+360V</text><line class="cls-5" x1="585.5" y1="418.08" x2="585.5" y2="410.22"/><polygon class="cls-12" points="587.2 412.21 585.5 410.52 583.8 412.21 583.8 410.77 585.5 409.08 587.2 410.77 587.2 412.21"/><text class="cls-4" transform="translate(572 404.58)">+50V</text><circle class="cls-5" cx="504.5" cy="427.08" r="9"/><circle class="cls-5" cx="531.5" cy="427.08" r="9"/><polygon class="cls-5" points="477.5 431.58 486.5 431.58 482 436.08 477.5 431.58"/><line class="cls-5" x1="531.5" y1="436.08" x2="531.5" y2="461.94"/><polygon class="cls-12" points="529.8 459.94 531.5 461.64 533.2 459.94 533.2 461.38 531.5 463.08 529.8 461.38 529.8 459.94"/><text class="cls-4" transform="translate(522.5 472.08)">-250V</text><line class="cls-5" x1="504.5" y1="436.08" x2="504.5" y2="448.44"/><polygon class="cls-12" points="502.81 446.44 504.5 448.14 506.19 446.44 506.19 447.88 504.5 449.58 502.81 447.88 502.81 446.44"/><text class="cls-4" transform="translate(495.5 458.58)">-100V</text><polyline class="cls-5" points="531.5 418.08 531.5 400.08 482 400.08 482 413.58 482 431.58"/><line class="cls-5" x1="504.5" y1="418.08" x2="504.5" y2="400.08"/><circle class="cls-5" cx="455" cy="409.08" r="9"/><line class="cls-5" x1="455" y1="418.08" x2="455" y2="436.08"/><circle class="cls-5" cx="455" cy="445.08" r="9"/><polyline class="cls-5" points="455 427.08 428 427.08 428 436.08"/><polygon class="cls-5" points="432.5 436.08 423.5 436.08 428 440.58 432.5 436.08"/><line class="cls-12" x1="455" y1="454.08" x2="455" y2="472.08"/><line class="cls-5" x1="455" y1="454.08" x2="455" y2="470.94"/><polygon class="cls-12" points="453.31 468.94 455 470.64 456.69 468.94 456.69 470.38 455 472.08 453.31 470.38 453.31 468.94"/><text class="cls-4" transform="translate(446 481.08)">-12</text><line class="cls-5" x1="455" y1="400.08" x2="455" y2="387.72"/><polygon class="cls-12" points="456.69 389.71 455 388.02 453.31 389.71 453.31 388.27 455 386.58 456.69 388.27 456.69 389.71"/><text class="cls-4" transform="translate(446 382.08)">+12</text><circle class="cls-5" cx="41" cy="418.08" r="9"/><line class="cls-5" x1="41" y1="427.08" x2="41" y2="445.08"/><line class="cls-5" x1="41" y1="409.08" x2="41" y2="401.22"/><polygon class="cls-12" points="42.7 403.21 41 401.52 39.3 403.21 39.3 401.77 41 400.08 42.7 401.77 42.7 403.21"/><text class="cls-4" transform="translate(32 395.58)">+5V</text><line class="cls-5" x1="36.5" y1="445.08" x2="45.5" y2="445.08"/></g></g></svg>